<mxfile host="app.diagrams.net" agent="Mozilla/5.0 (X11; Ubuntu; Linux x86_64; rv:137.0) Gecko/20100101 Firefox/137.0" version="26.2.12">
  <diagram name="Page-1" id="qeq1D54CKllyEGzeLFPF">
    <mxGraphModel dx="1428" dy="790" grid="1" gridSize="10" guides="1" tooltips="1" connect="1" arrows="1" fold="1" page="1" pageScale="1" pageWidth="850" pageHeight="1100" math="0" shadow="0">
      <root>
        <mxCell id="0" />
        <mxCell id="1" parent="0" />
        <mxCell id="sIoSZhJToJMATTDmdhsn-6" style="edgeStyle=orthogonalEdgeStyle;rounded=0;orthogonalLoop=1;jettySize=auto;html=1;exitX=1;exitY=0.5;exitDx=0;exitDy=0;" edge="1" parent="1" source="sIoSZhJToJMATTDmdhsn-1" target="sIoSZhJToJMATTDmdhsn-2">
          <mxGeometry relative="1" as="geometry" />
        </mxCell>
        <mxCell id="sIoSZhJToJMATTDmdhsn-1" value="Provider" style="ellipse;whiteSpace=wrap;html=1;aspect=fixed;" vertex="1" parent="1">
          <mxGeometry x="199" y="360" width="80" height="80" as="geometry" />
        </mxCell>
        <mxCell id="sIoSZhJToJMATTDmdhsn-7" style="edgeStyle=orthogonalEdgeStyle;rounded=0;orthogonalLoop=1;jettySize=auto;html=1;" edge="1" parent="1" source="sIoSZhJToJMATTDmdhsn-2" target="sIoSZhJToJMATTDmdhsn-5">
          <mxGeometry relative="1" as="geometry" />
        </mxCell>
        <mxCell id="sIoSZhJToJMATTDmdhsn-2" value="" style="dashed=0;outlineConnect=0;html=1;align=center;labelPosition=center;verticalLabelPosition=bottom;verticalAlign=top;shape=mxgraph.weblogos.sms;fillColor=#48B921;strokeColor=none" vertex="1" parent="1">
          <mxGeometry x="409" y="368" width="69.2" height="64" as="geometry" />
        </mxCell>
        <mxCell id="sIoSZhJToJMATTDmdhsn-5" value="" style="sketch=0;verticalLabelPosition=bottom;sketch=0;aspect=fixed;html=1;verticalAlign=top;strokeColor=none;fillColor=#000000;align=center;outlineConnect=0;pointerEvents=1;shape=mxgraph.citrix2.mobile;" vertex="1" parent="1">
          <mxGeometry x="609" y="375" width="25.255" height="50" as="geometry" />
        </mxCell>
        <mxCell id="sIoSZhJToJMATTDmdhsn-8" value="SMS" style="text;html=1;align=center;verticalAlign=middle;whiteSpace=wrap;rounded=0;" vertex="1" parent="1">
          <mxGeometry x="591.63" y="432" width="60" height="30" as="geometry" />
        </mxCell>
        <mxCell id="sIoSZhJToJMATTDmdhsn-9" value="SMS Service" style="text;html=1;align=center;verticalAlign=middle;whiteSpace=wrap;rounded=0;" vertex="1" parent="1">
          <mxGeometry x="409" y="440" width="60" height="30" as="geometry" />
        </mxCell>
      </root>
    </mxGraphModel>
  </diagram>
</mxfile>
